<mxfile host="65bd71144e" scale="1" border="10">
    <diagram id="-rriOPSDnHkLpZKLwRpb" name="Page-1">
        <mxGraphModel dx="3905" dy="3204" grid="1" gridSize="10" guides="1" tooltips="1" connect="1" arrows="1" fold="1" page="1" pageScale="1" pageWidth="850" pageHeight="1100" background="#FFFFFF" math="0" shadow="0">
            <root>
                <mxCell id="0"/>
                <mxCell id="1" parent="0"/>
                <mxCell id="96" value="" style="endArrow=oval;html=1;fillStyle=auto;strokeWidth=1;startSize=6;endSize=6;fillColor=#000000;startArrow=none;startFill=0;endFill=0;strokeColor=#3333FF;fontColor=#0000CC;" parent="1" source="229" edge="1">
                    <mxGeometry width="50" height="50" relative="1" as="geometry">
                        <mxPoint x="-1713.9699999999998" y="-1110.0699999999997" as="sourcePoint"/>
                        <mxPoint x="-2120" y="-1500" as="targetPoint"/>
                    </mxGeometry>
                </mxCell>
                <mxCell id="97" value="totale&lt;br&gt;likert" style="edgeLabel;html=1;align=center;verticalAlign=middle;resizable=0;points=[];fontColor=#0000CC;" parent="96" vertex="1" connectable="0">
                    <mxGeometry x="0.4791" y="1" relative="1" as="geometry">
                        <mxPoint x="32" y="13" as="offset"/>
                    </mxGeometry>
                </mxCell>
                <mxCell id="148" style="edgeStyle=elbowEdgeStyle;html=1;exitX=0.5;exitY=1;exitDx=0;exitDy=0;entryX=0.5;entryY=0;entryDx=0;entryDy=0;endArrow=none;endFill=0;elbow=vertical;rounded=0;jumpStyle=arc;" parent="1" source="151" target="152" edge="1">
                    <mxGeometry relative="1" as="geometry">
                        <mxPoint x="-2160.16" y="-2022.86" as="sourcePoint"/>
                        <mxPoint x="-2240.17" y="-1962.86" as="targetPoint"/>
                    </mxGeometry>
                </mxCell>
                <mxCell id="149" style="edgeStyle=elbowEdgeStyle;elbow=vertical;html=1;exitX=0.5;exitY=1;exitDx=0;exitDy=0;entryX=0.5;entryY=0;entryDx=0;entryDy=0;endArrow=none;endFill=0;rounded=0;jumpStyle=arc;" parent="1" source="151" target="156" edge="1">
                    <mxGeometry relative="1" as="geometry"/>
                </mxCell>
                <mxCell id="151" value="UTENTE" style="whiteSpace=wrap;html=1;" parent="1" vertex="1">
                    <mxGeometry x="-2220.19" y="-2121.22" width="80" height="40" as="geometry"/>
                </mxCell>
                <mxCell id="152" value="GUEST" style="whiteSpace=wrap;html=1;" parent="1" vertex="1">
                    <mxGeometry x="-2339.58" y="-2001.86" width="80" height="40" as="geometry"/>
                </mxCell>
                <mxCell id="156" value="REGISTRATO" style="whiteSpace=wrap;html=1;" parent="1" vertex="1">
                    <mxGeometry x="-2099.58" y="-2001.86" width="80" height="40" as="geometry"/>
                </mxCell>
                <mxCell id="157" value="" style="shape=singleArrow;whiteSpace=wrap;html=1;arrowWidth=0.4;arrowSize=0.4;rotation=-90;fillColor=#000000;" parent="1" vertex="1">
                    <mxGeometry x="-2199.88" y="-2076.2999999999997" width="38.76" height="29.17" as="geometry"/>
                </mxCell>
                <mxCell id="158" value="(e)" style="text;html=1;align=center;verticalAlign=middle;resizable=0;points=[];autosize=1;strokeColor=none;fillColor=none;" parent="1" vertex="1">
                    <mxGeometry x="-2182.1899999999996" y="-2068.22" width="40" height="30" as="geometry"/>
                </mxCell>
                <mxCell id="159" value="" style="endArrow=oval;html=1;fillStyle=auto;strokeWidth=1;startSize=6;endSize=6;fillColor=#000000;startArrow=none;startFill=0;endFill=1;exitX=0.5;exitY=0;exitDx=0;exitDy=0;" parent="1" source="151" edge="1">
                    <mxGeometry width="50" height="50" relative="1" as="geometry">
                        <mxPoint x="-2040.1599999999999" y="-1540.2" as="sourcePoint"/>
                        <mxPoint x="-2180.16" y="-2145.3799999999997" as="targetPoint"/>
                    </mxGeometry>
                </mxCell>
                <mxCell id="160" value="nome utente" style="edgeLabel;html=1;align=center;verticalAlign=middle;resizable=0;points=[];" parent="159" vertex="1" connectable="0">
                    <mxGeometry x="0.4791" y="1" relative="1" as="geometry">
                        <mxPoint x="-30" y="-21" as="offset"/>
                    </mxGeometry>
                </mxCell>
                <mxCell id="161" value="" style="endArrow=oval;html=1;fillStyle=auto;strokeWidth=1;startSize=6;endSize=6;fillColor=#000000;startArrow=none;startFill=0;endFill=0;" parent="1" source="156" edge="1">
                    <mxGeometry width="50" height="50" relative="1" as="geometry">
                        <mxPoint x="-2138.49" y="-1693.5933333333332" as="sourcePoint"/>
                        <mxPoint x="-2099.58" y="-2021.22" as="targetPoint"/>
                    </mxGeometry>
                </mxCell>
                <mxCell id="162" value="password" style="edgeLabel;html=1;align=center;verticalAlign=middle;resizable=0;points=[];" parent="161" vertex="1" connectable="0">
                    <mxGeometry x="0.4791" y="1" relative="1" as="geometry">
                        <mxPoint x="-34" y="-16" as="offset"/>
                    </mxGeometry>
                </mxCell>
                <mxCell id="163" value="" style="endArrow=oval;html=1;fillStyle=auto;strokeWidth=1;startSize=6;endSize=6;fillColor=#000000;startArrow=none;startFill=0;endFill=0;" parent="1" source="156" edge="1">
                    <mxGeometry width="50" height="50" relative="1" as="geometry">
                        <mxPoint x="-2123.49" y="-1700.26" as="sourcePoint"/>
                        <mxPoint x="-2019.58" y="-1941.22" as="targetPoint"/>
                    </mxGeometry>
                </mxCell>
                <mxCell id="164" value="indirizzo&lt;br&gt;mail" style="edgeLabel;html=1;align=center;verticalAlign=middle;resizable=0;points=[];" parent="163" vertex="1" connectable="0">
                    <mxGeometry x="0.4791" y="1" relative="1" as="geometry">
                        <mxPoint x="38" y="9" as="offset"/>
                    </mxGeometry>
                </mxCell>
                <mxCell id="165" value="" style="endArrow=oval;html=1;fillStyle=auto;strokeWidth=1;startSize=6;endSize=6;fillColor=#000000;startArrow=none;startFill=0;endFill=0;" parent="1" source="156" edge="1">
                    <mxGeometry width="50" height="50" relative="1" as="geometry">
                        <mxPoint x="-2113.49" y="-1690.26" as="sourcePoint"/>
                        <mxPoint x="-2039.58" y="-2021.22" as="targetPoint"/>
                    </mxGeometry>
                </mxCell>
                <mxCell id="166" value="numero&lt;br&gt;di&lt;br&gt;telefono" style="edgeLabel;html=1;align=center;verticalAlign=middle;resizable=0;points=[];" parent="165" vertex="1" connectable="0">
                    <mxGeometry x="0.4791" y="1" relative="1" as="geometry">
                        <mxPoint x="13" y="-36" as="offset"/>
                    </mxGeometry>
                </mxCell>
                <mxCell id="167" value="" style="endArrow=oval;html=1;fillStyle=auto;strokeWidth=1;startSize=6;endSize=6;fillColor=#000000;startArrow=none;startFill=0;endFill=0;" parent="1" source="156" edge="1">
                    <mxGeometry width="50" height="50" relative="1" as="geometry">
                        <mxPoint x="-2103.49" y="-1680.26" as="sourcePoint"/>
                        <mxPoint x="-1999.58" y="-2021.22" as="targetPoint"/>
                    </mxGeometry>
                </mxCell>
                <mxCell id="168" value="data&lt;br&gt;di&lt;br&gt;nascita" style="edgeLabel;html=1;align=center;verticalAlign=middle;resizable=0;points=[];" parent="167" vertex="1" connectable="0">
                    <mxGeometry x="0.4791" y="1" relative="1" as="geometry">
                        <mxPoint x="32" y="-4" as="offset"/>
                    </mxGeometry>
                </mxCell>
                <mxCell id="169" value="" style="endArrow=oval;html=1;fillStyle=auto;strokeWidth=1;startSize=6;endSize=6;fillColor=#000000;startArrow=none;startFill=0;endFill=0;" parent="1" source="156" edge="1">
                    <mxGeometry width="50" height="50" relative="1" as="geometry">
                        <mxPoint x="-2068.91" y="-1992.4399999999998" as="sourcePoint"/>
                        <mxPoint x="-2069.58" y="-2021.22" as="targetPoint"/>
                    </mxGeometry>
                </mxCell>
                <mxCell id="170" value="LIS" style="edgeLabel;html=1;align=center;verticalAlign=middle;resizable=0;points=[];" parent="169" vertex="1" connectable="0">
                    <mxGeometry x="0.4791" y="1" relative="1" as="geometry">
                        <mxPoint x="-1" y="-18" as="offset"/>
                    </mxGeometry>
                </mxCell>
                <mxCell id="171" style="edgeStyle=elbowEdgeStyle;html=1;exitX=0.5;exitY=1;exitDx=0;exitDy=0;entryX=0.5;entryY=0;entryDx=0;entryDy=0;endArrow=none;endFill=0;elbow=vertical;rounded=0;jumpStyle=arc;" parent="1" target="173" edge="1">
                    <mxGeometry relative="1" as="geometry">
                        <mxPoint x="-2059.8" y="-1960.8600000000001" as="sourcePoint"/>
                        <mxPoint x="-2119.7799999999997" y="-1842.5" as="targetPoint"/>
                    </mxGeometry>
                </mxCell>
                <mxCell id="173" value="STREAMER" style="whiteSpace=wrap;html=1;" parent="1" vertex="1">
                    <mxGeometry x="-2219.1899999999996" y="-1881.5" width="80" height="40" as="geometry"/>
                </mxCell>
                <mxCell id="175" value="" style="shape=singleArrow;whiteSpace=wrap;html=1;arrowWidth=0.4;arrowSize=0.4;rotation=-90;fillColor=#000000;" parent="1" vertex="1">
                    <mxGeometry x="-2079.49" y="-1955.94" width="38.76" height="29.17" as="geometry"/>
                </mxCell>
                <mxCell id="176" value="(e)" style="text;html=1;align=center;verticalAlign=middle;resizable=0;points=[];autosize=1;strokeColor=none;fillColor=none;" parent="1" vertex="1">
                    <mxGeometry x="-2061.7999999999997" y="-1947.8600000000001" width="40" height="30" as="geometry"/>
                </mxCell>
                <mxCell id="177" value="" style="edgeStyle=none;shape=connector;rounded=1;fillStyle=auto;html=1;labelBackgroundColor=default;strokeColor=default;strokeWidth=1;fontFamily=Helvetica;fontSize=11;fontColor=default;endArrow=none;startSize=6;endSize=6;fillColor=#000000;exitX=0.5;exitY=1;exitDx=0;exitDy=0;" parent="1" target="181" edge="1">
                    <mxGeometry relative="1" as="geometry">
                        <mxPoint x="-2180.23" y="-1841.5" as="sourcePoint"/>
                    </mxGeometry>
                </mxCell>
                <mxCell id="178" value="(1, 1)" style="edgeLabel;html=1;align=center;verticalAlign=middle;resizable=0;points=[];fontSize=11;fontFamily=Helvetica;fontColor=default;" parent="177" vertex="1" connectable="0">
                    <mxGeometry x="-0.2675" y="1" relative="1" as="geometry">
                        <mxPoint x="14" y="18" as="offset"/>
                    </mxGeometry>
                </mxCell>
                <mxCell id="179" value="" style="edgeStyle=none;shape=connector;rounded=1;fillStyle=auto;html=1;labelBackgroundColor=default;strokeColor=default;strokeWidth=1;fontFamily=Helvetica;fontSize=11;fontColor=default;endArrow=none;startSize=6;endSize=6;fillColor=#000000;" parent="1" source="181" target="184" edge="1">
                    <mxGeometry relative="1" as="geometry"/>
                </mxCell>
                <mxCell id="180" value="(1, 1)" style="edgeLabel;html=1;align=center;verticalAlign=middle;resizable=0;points=[];fontSize=11;fontFamily=Helvetica;fontColor=default;" parent="179" vertex="1" connectable="0">
                    <mxGeometry x="-0.327" y="1" relative="1" as="geometry">
                        <mxPoint x="15" y="-9" as="offset"/>
                    </mxGeometry>
                </mxCell>
                <mxCell id="181" value="gestione" style="rhombus;whiteSpace=wrap;html=1;" parent="1" vertex="1">
                    <mxGeometry x="-2220.77" y="-1801.5" width="80" height="40" as="geometry"/>
                </mxCell>
                <mxCell id="182" value="" style="edgeStyle=none;jumpStyle=arc;html=1;endArrow=none;endFill=0;" parent="1" source="184" target="181" edge="1">
                    <mxGeometry relative="1" as="geometry"/>
                </mxCell>
                <mxCell id="184" value="CANALE" style="rounded=0;whiteSpace=wrap;html=1;" parent="1" vertex="1">
                    <mxGeometry x="-2220.77" y="-1721.5" width="80" height="40" as="geometry"/>
                </mxCell>
                <mxCell id="185" value="" style="endArrow=oval;html=1;fillStyle=auto;strokeWidth=1;startSize=6;endSize=6;fillColor=#000000;startArrow=none;startFill=0;endFill=1;" parent="1" edge="1">
                    <mxGeometry width="50" height="50" relative="1" as="geometry">
                        <mxPoint x="-2170.7699999999995" y="-1731.5" as="sourcePoint"/>
                        <mxPoint x="-2190.7699999999995" y="-1731.5" as="targetPoint"/>
                    </mxGeometry>
                </mxCell>
                <mxCell id="186" value="" style="endArrow=oval;html=1;fillStyle=auto;strokeWidth=1;startSize=6;endSize=6;fillColor=#000000;startArrow=none;startFill=0;endFill=0;" parent="1" source="184" edge="1">
                    <mxGeometry width="50" height="50" relative="1" as="geometry">
                        <mxPoint x="-2130.77" y="-1711.5" as="sourcePoint"/>
                        <mxPoint x="-2140.58" y="-1661.22" as="targetPoint"/>
                    </mxGeometry>
                </mxCell>
                <mxCell id="187" value="trailer" style="edgeLabel;html=1;align=center;verticalAlign=middle;resizable=0;points=[];" parent="186" vertex="1" connectable="0">
                    <mxGeometry x="0.4791" y="1" relative="1" as="geometry">
                        <mxPoint x="27" y="6" as="offset"/>
                    </mxGeometry>
                </mxCell>
                <mxCell id="188" value="" style="endArrow=oval;html=1;fillStyle=auto;strokeWidth=1;startSize=6;endSize=6;fillColor=#000000;startArrow=none;startFill=0;endFill=0;" parent="1" source="184" edge="1">
                    <mxGeometry width="50" height="50" relative="1" as="geometry">
                        <mxPoint x="-1891.904" y="-1521.22" as="sourcePoint"/>
                        <mxPoint x="-2139.58" y="-1741.22" as="targetPoint"/>
                    </mxGeometry>
                </mxCell>
                <mxCell id="189" value="descrizione" style="edgeLabel;html=1;align=center;verticalAlign=middle;resizable=0;points=[];" parent="188" vertex="1" connectable="0">
                    <mxGeometry x="0.4791" y="1" relative="1" as="geometry">
                        <mxPoint x="41" y="-4" as="offset"/>
                    </mxGeometry>
                </mxCell>
                <mxCell id="198" value="" style="endArrow=oval;html=1;fillStyle=auto;strokeWidth=1;startSize=6;endSize=6;fillColor=#000000;startArrow=none;startFill=0;endFill=0;exitX=1;exitY=0.75;exitDx=0;exitDy=0;" parent="1" source="156" edge="1">
                    <mxGeometry width="50" height="50" relative="1" as="geometry">
                        <mxPoint x="-2029.8949606299211" y="-1951.86" as="sourcePoint"/>
                        <mxPoint x="-1999.58" y="-1961.22" as="targetPoint"/>
                    </mxGeometry>
                </mxCell>
                <mxCell id="199" value="premium" style="edgeLabel;html=1;align=center;verticalAlign=middle;resizable=0;points=[];" parent="198" vertex="1" connectable="0">
                    <mxGeometry x="0.4791" y="1" relative="1" as="geometry">
                        <mxPoint x="38" y="3" as="offset"/>
                    </mxGeometry>
                </mxCell>
                <mxCell id="210" value="" style="edgeStyle=none;shape=connector;rounded=1;fillStyle=auto;html=1;labelBackgroundColor=default;strokeColor=default;strokeWidth=1;fontFamily=Helvetica;fontSize=11;fontColor=default;endArrow=none;startSize=6;endSize=6;fillColor=#000000;entryX=0.5;entryY=0;entryDx=0;entryDy=0;exitX=0.5;exitY=1;exitDx=0;exitDy=0;" parent="1" target="213" edge="1">
                    <mxGeometry relative="1" as="geometry">
                        <mxPoint x="-2179.48" y="-1681.5" as="sourcePoint"/>
                        <mxPoint x="-2178.1299999999997" y="-1621.5" as="targetPoint"/>
                    </mxGeometry>
                </mxCell>
                <mxCell id="211" value="(0, N)" style="edgeLabel;html=1;align=center;verticalAlign=middle;resizable=0;points=[];fontSize=11;fontFamily=Helvetica;fontColor=default;" parent="210" vertex="1" connectable="0">
                    <mxGeometry x="-0.3032" relative="1" as="geometry">
                        <mxPoint x="-20" y="16" as="offset"/>
                    </mxGeometry>
                </mxCell>
                <mxCell id="212" value="(1, 1)" style="edgeStyle=none;html=1;endArrow=none;endFill=0;" parent="1" source="213" target="229" edge="1">
                    <mxGeometry x="-0.4777" y="20" relative="1" as="geometry">
                        <mxPoint as="offset"/>
                    </mxGeometry>
                </mxCell>
                <mxCell id="213" value="contenitore" style="rhombus;whiteSpace=wrap;html=1;" parent="1" vertex="1">
                    <mxGeometry x="-2229.48" y="-1641.74" width="100" height="40" as="geometry"/>
                </mxCell>
                <mxCell id="225" value="" style="endArrow=oval;html=1;fillStyle=auto;strokeWidth=1;startSize=6;endSize=6;fillColor=#000000;startArrow=none;startFill=0;endFill=0;" parent="1" source="184" edge="1">
                    <mxGeometry width="50" height="50" relative="1" as="geometry">
                        <mxPoint x="-1870.1249999999998" y="-1561.22" as="sourcePoint"/>
                        <mxPoint x="-2119.58" y="-1691.22" as="targetPoint"/>
                    </mxGeometry>
                </mxCell>
                <mxCell id="226" value="immagine&lt;br&gt;profilo" style="edgeLabel;html=1;align=center;verticalAlign=middle;resizable=0;points=[];" parent="225" vertex="1" connectable="0">
                    <mxGeometry x="0.4791" y="1" relative="1" as="geometry">
                        <mxPoint x="45" y="2" as="offset"/>
                    </mxGeometry>
                </mxCell>
                <mxCell id="229" value="CONTENUTO&lt;br&gt;MULTIMEDIALE" style="rounded=0;whiteSpace=wrap;html=1;" parent="1" vertex="1">
                    <mxGeometry x="-2239.77" y="-1561.6499999999999" width="120" height="40" as="geometry"/>
                </mxCell>
                <mxCell id="230" value="" style="endArrow=oval;html=1;fillStyle=auto;strokeWidth=1;startSize=6;endSize=6;fillColor=#000000;startArrow=none;startFill=0;endFill=0;" parent="1" source="229" edge="1">
                    <mxGeometry width="50" height="50" relative="1" as="geometry">
                        <mxPoint x="-2153.2299999999996" y="-1585.2133333333334" as="sourcePoint"/>
                        <mxPoint x="-2197.29" y="-1581.87" as="targetPoint"/>
                    </mxGeometry>
                </mxCell>
                <mxCell id="231" value="titolo" style="edgeLabel;html=1;align=center;verticalAlign=middle;resizable=0;points=[];" parent="230" vertex="1" connectable="0">
                    <mxGeometry x="0.4791" y="1" relative="1" as="geometry">
                        <mxPoint x="-21" y="-10" as="offset"/>
                    </mxGeometry>
                </mxCell>
                <mxCell id="232" value="" style="endArrow=oval;html=1;fillStyle=auto;strokeWidth=1;startSize=6;endSize=6;fillColor=#000000;startArrow=none;startFill=0;endFill=0;" parent="1" source="229" edge="1">
                    <mxGeometry width="50" height="50" relative="1" as="geometry">
                        <mxPoint x="-2222.0620980926424" y="-1490.6499999999999" as="sourcePoint"/>
                        <mxPoint x="-2239.58" y="-1501.22" as="targetPoint"/>
                    </mxGeometry>
                </mxCell>
                <mxCell id="233" value="LIS" style="edgeLabel;html=1;align=center;verticalAlign=middle;resizable=0;points=[];" parent="232" vertex="1" connectable="0">
                    <mxGeometry x="0.4791" y="1" relative="1" as="geometry">
                        <mxPoint x="-25" y="3" as="offset"/>
                    </mxGeometry>
                </mxCell>
                <mxCell id="234" value="" style="endArrow=oval;html=1;fillStyle=auto;strokeWidth=1;startSize=6;endSize=6;fillColor=#000000;startArrow=none;startFill=0;endFill=1;" parent="1" edge="1">
                    <mxGeometry width="50" height="50" relative="1" as="geometry">
                        <mxPoint x="-2107.29" y="-1541.8700000000001" as="sourcePoint"/>
                        <mxPoint x="-2207.29" y="-1571.8700000000001" as="targetPoint"/>
                        <Array as="points">
                            <mxPoint x="-2107.29" y="-1571.8700000000001"/>
                        </Array>
                    </mxGeometry>
                </mxCell>
                <mxCell id="273" value="(0, N)" style="edgeStyle=none;html=1;entryX=0;entryY=0.75;entryDx=0;entryDy=0;endArrow=none;endFill=0;jumpStyle=arc;startArrow=none;" parent="1" source="289" target="156" edge="1">
                    <mxGeometry x="-0.8638" y="20" relative="1" as="geometry">
                        <Array as="points">
                            <mxPoint x="-2220" y="-1900"/>
                            <mxPoint x="-2120" y="-1970"/>
                        </Array>
                        <mxPoint as="offset"/>
                    </mxGeometry>
                </mxCell>
                <mxCell id="282" value="" style="edgeStyle=none;html=1;exitX=0.5;exitY=1;exitDx=0;exitDy=0;fontSize=18;endArrow=none;endFill=0;" parent="1" source="283" edge="1">
                    <mxGeometry x="0.5009" y="-30" relative="1" as="geometry">
                        <mxPoint x="-2399.58" y="-1759.93" as="targetPoint"/>
                        <mxPoint as="offset"/>
                    </mxGeometry>
                </mxCell>
                <mxCell id="283" value="VOTO" style="whiteSpace=wrap;html=1;" parent="1" vertex="1">
                    <mxGeometry x="-2439.58" y="-1840.0000000000002" width="80" height="40" as="geometry"/>
                </mxCell>
                <mxCell id="284" value="" style="endArrow=oval;html=1;fillStyle=auto;strokeWidth=1;startSize=6;endSize=6;fillColor=#000000;startArrow=none;startFill=0;endFill=0;" parent="1" source="283" edge="1">
                    <mxGeometry width="50" height="50" relative="1" as="geometry">
                        <mxPoint x="-2259.55" y="-1258.98" as="sourcePoint"/>
                        <mxPoint x="-2339.58" y="-1820.16" as="targetPoint"/>
                    </mxGeometry>
                </mxCell>
                <mxCell id="285" value="likert" style="edgeLabel;html=1;align=center;verticalAlign=middle;resizable=0;points=[];" parent="284" vertex="1" connectable="0">
                    <mxGeometry x="0.4791" y="1" relative="1" as="geometry">
                        <mxPoint x="25" y="-13" as="offset"/>
                    </mxGeometry>
                </mxCell>
                <mxCell id="286" value="(0, N)" style="edgeLabel;html=1;align=center;verticalAlign=middle;resizable=0;points=[];fontSize=11;fontFamily=Helvetica;fontColor=default;" parent="1" vertex="1" connectable="0">
                    <mxGeometry x="-2418.3847539950393" y="-1708.1913166964503" as="geometry"/>
                </mxCell>
                <mxCell id="298" style="edgeStyle=none;shape=connector;rounded=1;jumpStyle=arc;html=1;exitX=0.5;exitY=1;exitDx=0;exitDy=0;labelBackgroundColor=default;strokeColor=default;fontFamily=Helvetica;fontSize=11;fontColor=default;startArrow=none;endArrow=none;endFill=0;" parent="1" source="287" target="229" edge="1">
                    <mxGeometry relative="1" as="geometry">
                        <Array as="points">
                            <mxPoint x="-2400" y="-1540"/>
                        </Array>
                    </mxGeometry>
                </mxCell>
                <mxCell id="287" value="assegnato" style="rhombus;whiteSpace=wrap;html=1;" parent="1" vertex="1">
                    <mxGeometry x="-2439.58" y="-1759.93" width="80" height="40" as="geometry"/>
                </mxCell>
                <mxCell id="288" value="(1, 1)" style="edgeLabel;html=1;align=center;verticalAlign=middle;resizable=0;points=[];fontSize=11;fontFamily=Helvetica;fontColor=default;" parent="1" vertex="1" connectable="0">
                    <mxGeometry x="-2419.584753995039" y="-1767.6513166964503" as="geometry"/>
                </mxCell>
                <mxCell id="296" style="edgeStyle=none;shape=connector;rounded=1;jumpStyle=arc;html=1;exitX=0;exitY=0.5;exitDx=0;exitDy=0;labelBackgroundColor=default;strokeColor=default;fontFamily=Helvetica;fontSize=11;fontColor=default;startArrow=none;endArrow=none;endFill=0;" parent="1" source="289" target="283" edge="1">
                    <mxGeometry relative="1" as="geometry">
                        <Array as="points">
                            <mxPoint x="-2400" y="-1900"/>
                        </Array>
                    </mxGeometry>
                </mxCell>
                <mxCell id="297" value="(1, 1)" style="edgeLabel;html=1;align=center;verticalAlign=middle;resizable=0;points=[];fontSize=11;fontFamily=Helvetica;fontColor=default;" parent="296" vertex="1" connectable="0">
                    <mxGeometry x="-0.5164" y="3" relative="1" as="geometry">
                        <mxPoint x="23" y="8" as="offset"/>
                    </mxGeometry>
                </mxCell>
                <mxCell id="289" value="creazione" style="rhombus;whiteSpace=wrap;html=1;" parent="1" vertex="1">
                    <mxGeometry x="-2319.77" y="-1921.5" width="80" height="40" as="geometry"/>
                </mxCell>
                <mxCell id="299" value="" style="endArrow=oval;html=1;fillStyle=auto;strokeWidth=1;startSize=6;endSize=6;fillColor=#000000;startArrow=none;startFill=0;endFill=0;strokeColor=#3333FF;fontColor=#0000CC;" parent="1" source="229" edge="1">
                    <mxGeometry width="50" height="50" relative="1" as="geometry">
                        <mxPoint x="-2141.068919567827" y="-1511.6499999999999" as="sourcePoint"/>
                        <mxPoint x="-2180" y="-1500" as="targetPoint"/>
                    </mxGeometry>
                </mxCell>
                <mxCell id="300" value="numero&lt;br&gt;likert" style="edgeLabel;html=1;align=center;verticalAlign=middle;resizable=0;points=[];fontColor=#0000CC;" parent="299" vertex="1" connectable="0">
                    <mxGeometry x="0.4791" y="1" relative="1" as="geometry">
                        <mxPoint x="-2" y="25" as="offset"/>
                    </mxGeometry>
                </mxCell>
                <mxCell id="301" value="|  |        |" style="text;whiteSpace=wrap;html=1;" parent="1" vertex="1">
                    <mxGeometry x="-2540" y="-2190" width="80" height="40" as="geometry"/>
                </mxCell>
            </root>
        </mxGraphModel>
    </diagram>
</mxfile>
